<svg xmlns="http://www.w3.org/2000/svg" width="1200" height="630" viewBox="0 0 1200 630" fill="none">
  <rect width="1200" height="630" fill="#080A08"/>
  <circle cx="720" cy="294" r="208" fill="#D9ED92" fill-opacity=".12"/>
  <circle cx="794" cy="360" r="160" fill="#F77F00" fill-opacity=".12"/>
  <g fill-opacity=".78">
    <circle cx="620" cy="250" r="4" fill="#D9ED92"/>
    <circle cx="692" cy="312" r="3" fill="#52B788"/>
    <circle cx="766" cy="260" r="5" fill="#34A0A4"/>
    <circle cx="844" cy="386" r="4" fill="#F77F00"/>
    <circle cx="704" cy="428" r="3" fill="#F8F9FA"/>
    <circle cx="902" cy="295" r="3" fill="#D9ED92"/>
  </g>
  <path d="M574 330C642 210 766 460 870 284" stroke="#D9ED92" stroke-opacity=".5" stroke-width="2" fill="none"/>
  <path d="M560 380C664 478 756 178 920 352" stroke="#52B788" stroke-opacity=".4" stroke-width="2" fill="none"/>
  <path d="M612 236C716 154 786 402 950 250" stroke="#F77F00" stroke-opacity=".38" stroke-width="2" fill="none"/>
  <rect x="66" y="72" width="344" height="486" rx="10" fill="#090C09" stroke="#F8F9FA" stroke-opacity=".15"/>
  <rect x="98" y="110" width="48" height="48" rx="8" fill="#D9ED92"/>
  <rect x="98" y="198" width="250" height="12" rx="6" fill="#F8F9FA" fill-opacity=".34"/>
  <rect x="98" y="244" width="202" height="12" rx="6" fill="#F8F9FA" fill-opacity=".24"/>
  <rect x="98" y="290" width="262" height="12" rx="6" fill="#F8F9FA" fill-opacity=".28"/>
  <rect x="98" y="382" width="90" height="38" rx="8" fill="#D9ED92"/>
  <rect x="200" y="382" width="90" height="38" rx="8" fill="#F8F9FA" fill-opacity=".09"/>
  <rect x="302" y="382" width="90" height="38" rx="8" fill="#F8F9FA" fill-opacity=".09"/>
  <text x="98" y="486" fill="#F8F9FA" font-family="Arial, sans-serif" font-size="38" font-weight="700">Chroma Field Lab</text>
</svg>
